# xmcd
#
# Track frame offsets:
#	150
#	18256
#	34058
#	51097
#	67208
#	82546
#	98371
#	116506
#	132099
#	148122
#	165410
#	185875
#	201710
#	219011
#
# Disc length: 3158 seconds
#
# Revision: 1
# Processed by: cddbd v1.5.1PL2 Copyright (c) Steve Scherf et al.
# Submitted via: audiograbber 1.83.01
#
DISCID=bc0c540e
DTITLE=Star Disc - SD123
DYEAR=1900
DGENRE=Karaoke
TTITLE0=Strait, George - I Hate Everything
TTITLE1=Brooks and Dunn - That's What It's All About
TTITLE2=Keith, Toby - Stays In Mexico
TTITLE3=Gentry, Montgomery - You Do Your Thing
TTITLE4=Lonestar - Mr. Mom
TTITLE5=Worley, Darryl - Awful Beautiful Day
TTITLE6=Sugarland - Baby Girl
TTITLE7=Shelton, Blake - Some Beach
TTITLE8=Elam, Katrina - No End In Sight
TTITLE9=Willmon, Trent - Dixie Rose Deluxe's Honky Tonk
TTITLE10=Montgomery, John Michael - Goes Good With Beer
TTITLE11=Restless Heart - Feel My Way To You
TTITLE12=Black, Clint - My Imagination
TTITLE13=Buffett, Jimmy and George Strait - Sea Of Heartbreak
EXTD=
EXTT0=
EXTT1=
EXTT2=
EXTT3=
EXTT4=
EXTT5=
EXTT6=
EXTT7=
EXTT8=
EXTT9=
EXTT10=
EXTT11=
EXTT12=
EXTT13=
PLAYORDER=
